<?xml version="1.0" encoding="UTF-8" standalone="no"?>
<svg
   version="1.1"
   id="svg2"
   xmlSpace="preserve"
   width="304.69528"
   height="170.07904"
   viewBox="0 0 304.69529 170.07904"
   xmlns="http://www.w3.org/2000/svg"
   xmlnsSvg="http://www.w3.org/2000/svg"><defs
     id="defs6" /><g
     id="g8"
     transform="matrix(1.3333333,0,0,-1.3333333,-8.0312531,179.52696)"><g
       id="g10"
       transform="scale(0.1)">
		<path
         d="m 224.09,1230.92 c 22.609,17.49 48.082,31.95 74.355,44.05 101.723,46.82 227.34,64.47 339.446,70.35 154.75,10.53 318.621,-53.88 451.339,-131.18 5.76,-3.34 9.86,-9.81 12.92,-19.09 3.21,-9.71 4.69,-20.36 6.36,-28.94 5.34,-27.49 9.46,-55.4 12.86,-83.18 9.95,-81.52 13.84,-166.313 7.52,-248.215 -2.94,-38.121 -8.26,-76.633 -17.11,-113.926 19.02,6.293 37.9,12.984 56.63,20.07 18.35,-49.48 37.13,-98.836 56.36,-148.058 C 1169.4,571.754 1112.81,553.855 1055.35,539.109 995.621,404.469 900.258,284.32 788.777,189.621 772.813,176.012 669.629,91.5195 668.379,90.4883 L 641.93,70.8594 616.273,90.0898 C 581.012,117.82 546.23,149.309 513.66,180.031 c -70.972,66.938 -139.031,140.321 -196.109,219.09 -31.578,43.57 -60.684,90.086 -83.281,138.805 -59.036,14.969 -117.18,33.262 -174.0356,54.875 19.2226,49.222 38.0156,98.578 56.3246,148.058 19.507,-7.379 39.179,-14.328 58.996,-20.847 -18.391,88.203 -24.543,179.355 -20.492,268.894 2.199,48.564 7.328,97.884 16.386,145.664 2.735,14.37 5.817,28.91 9.778,42.99 3.625,12.9 7.16,22.71 14.781,28.46 9.406,8.65 17.656,16.83 28.082,24.9"
         style="fill:#FFFFFF;fill-opacity:1;fill-rule:nonzero;stroke:none"
         id="path12" />
		 <path
         d="m 1148.18,646.555 -11.18,6.304 c -0.6,0.379 -1.07,0.348 -1.6,0.188 l -25.78,-7.93 c -0.52,-0.16 -1,-0.191 -1.6,0.188 l -0.59,0.383 c -0.57,0.281 -0.94,0.843 -1.13,1.468 l -1.15,3.727 c -0.19,0.621 -0.12,1.32 0.11,1.844 l 0.28,0.648 c 0.31,0.555 0.69,0.895 1.22,1.055 l 19,5.847 c 0.53,0.168 1.03,0.094 1.6,-0.187 l 0.89,-0.402 c 0.57,-0.278 1.03,-0.821 1.22,-1.438 l 0.48,-1.559 c 0.25,-0.824 0.85,-1.207 1.55,-0.992 l 11.26,3.469 c 0.71,0.215 0.99,0.867 0.73,1.699 l -6.36,20.696 c -0.26,0.832 -0.86,1.207 -1.57,0.992 l -10.9,-3.356 c -0.71,-0.215 -0.99,-0.867 -0.73,-1.699 l 0.03,-0.098 c 0.22,-0.726 -0.36,-1.015 -1.41,-0.433 l -1.04,0.582 c -0.6,0.383 -1.07,0.351 -1.6,0.183 l -28.16,-8.66 c -0.52,-0.16 -0.93,-0.394 -1.21,-1.054 l -5.71,-11.493 c -0.31,-0.554 -0.29,-1.23 -0.11,-1.847 l 6.82,-22.149 c 0.19,-0.621 0.56,-1.191 1.13,-1.468 l 11.18,-6.301 c 0.6,-0.383 1.07,-0.352 1.6,-0.192 l 25.77,7.93 c 0.53,0.168 1,0.199 1.6,-0.187 l 0.6,-0.383 c 0.57,-0.274 0.94,-0.844 1.13,-1.465 l 1.46,-4.762 c 0.19,-0.617 0.12,-1.32 -0.1,-1.848 l -0.28,-0.648 c -0.32,-0.547 -0.69,-0.894 -1.22,-1.055 l -19.88,-6.113 c -0.53,-0.168 -1.04,-0.094 -1.6,0.188 l -0.9,0.402 c -0.57,0.277 -1.02,0.816 -1.21,1.437 l -0.48,1.555 c -0.25,0.824 -0.85,1.211 -1.55,0.992 l -11.27,-3.465 c -0.7,-0.214 -0.98,-0.867 -0.73,-1.699 l 6.37,-20.695 c 0.26,-0.832 0.86,-1.211 1.56,-0.992 l 10.91,3.355 c 0.7,0.215 0.98,0.867 0.73,1.699 l -0.03,0.098 c -0.23,0.727 0.35,1.016 1.4,0.434 l 1.05,-0.582 c 0.6,-0.387 1.07,-0.356 1.6,-0.188 l 29.03,8.93 c 0.53,0.16 0.94,0.402 1.21,1.055 l 5.71,11.5 c 0.31,0.546 0.3,1.222 0.11,1.839 l -7.13,23.192 c -0.19,0.621 -0.56,1.183 -1.13,1.461 z m -71.89,3.996 -2.68,10.933 c -0.21,0.84 -0.78,1.254 -1.5,1.079 l -23.16,-5.676 c -0.62,-0.157 -0.9,-0.559 -1.11,-1.278 l -9.66,-35.937 c -0.24,-0.949 -0.95,-1.121 -1.6,-0.391 l -25.23,27.481 c -0.51,0.543 -1.01,0.644 -1.64,0.488 l -24.847,-6.102 c -0.718,-0.171 -1.035,-0.812 -0.832,-1.648 l 2.688,-10.937 c 0.211,-0.844 0.785,-1.258 1.5,-1.086 l 4.914,1.211 c 0.715,0.171 1.293,-0.243 1.504,-1.086 l 10.683,-43.539 c 0.21,-0.84 -0.11,-1.473 -0.83,-1.649 l -4.916,-1.207 c -0.711,-0.176 -1.031,-0.812 -0.82,-1.656 l 2.686,-10.938 c 0.2,-0.836 0.78,-1.254 1.49,-1.078 l 27.27,6.692 c 0.71,0.179 1.03,0.808 0.82,1.652 l -2.68,10.937 c -0.21,0.836 -0.78,1.258 -1.5,1.079 l -4.83,-1.184 c -0.71,-0.172 -1.28,0.242 -1.5,1.086 l -6.14,25.031 c -0.31,1.258 0.42,1.774 1.3,0.871 l 28.1,-30.676 c 0.65,-0.734 1.37,-0.558 1.61,0.399 l 10.76,40.324 c 0.37,1.207 1.25,1.082 1.56,-0.176 l 6.17,-25.132 c 0.21,-0.844 -0.11,-1.477 -0.83,-1.653 l -3.48,-0.851 c -0.72,-0.18 -1.03,-0.817 -0.83,-1.657 l 2.69,-10.937 c 0.2,-0.844 0.78,-1.262 1.49,-1.086 l 27.27,6.695 c 0.71,0.176 1.03,0.813 0.82,1.649 l -2.68,10.937 c -0.21,0.844 -0.78,1.262 -1.5,1.086 l -3.57,-0.879 c -0.72,-0.176 -1.29,0.242 -1.5,1.082 l -10.69,43.539 c -0.21,0.844 0.12,1.477 0.83,1.657 l 3.58,0.875 c 0.71,0.171 1.03,0.812 0.82,1.656 z m -126.087,-58.297 -8.23,-1.531 c -0.821,-0.149 -1.391,0.402 -1.297,1.414 l 1.691,15.074 c 0.125,1.344 0.938,1.492 1.539,0.285 l 7,-13.461 c 0.446,-0.906 0.11,-1.633 -0.703,-1.781 z m 29.949,-14.035 -28.535,55.273 c -0.32,0.711 -0.922,0.93 -1.554,0.813 l -20.09,-3.739 c -0.633,-0.117 -1.118,-0.535 -1.16,-1.316 l -6.758,-61.832 c -0.043,-0.781 -0.528,-1.203 -1.157,-1.32 l -4.707,-0.875 c -0.726,-0.129 -1.078,-0.75 -0.918,-1.602 l 2.059,-11.07 c 0.152,-0.852 0.707,-1.305 1.434,-1.168 l 27.507,5.113 c 0.727,0.141 1.079,0.754 0.918,1.602 l -2.058,11.074 c -0.156,0.855 -0.707,1.301 -1.434,1.164 l -4.07,-0.754 c -0.813,-0.148 -1.383,0.402 -1.289,1.414 l 0.344,3.149 c 0.043,0.773 0.527,1.195 1.16,1.316 l 17.918,3.328 c 0.633,0.117 1.258,-0.207 1.574,-0.918 l 1.352,-2.723 c 0.449,-0.906 0.113,-1.628 -0.7,-1.781 l -2.172,-0.402 c -0.722,-0.137 -1.078,-0.754 -0.921,-1.606 l 2.058,-11.074 c 0.16,-0.847 0.715,-1.293 1.438,-1.164 l 27.597,5.133 c 0.727,0.137 1.078,0.75 0.922,1.601 l -2.055,11.075 c -0.164,0.855 -0.714,1.3 -1.441,1.164 l -3.707,-0.688 c -0.633,-0.117 -1.234,0.098 -1.555,0.813 z m -84.039,33.441 -1.554,11.156 c -0.125,0.856 -0.653,1.325 -1.383,1.227 l -27.715,-3.875 c -0.727,-0.098 -1.109,-0.699 -0.984,-1.555 l 1.554,-11.156 c 0.117,-0.859 0.653,-1.332 1.383,-1.227 l 3.555,0.497 c 0.73,0.097 1.258,-0.372 1.379,-1.235 l 1.441,-10.293 c 0.117,-0.855 -0.187,-1.34 -0.898,-1.551 l -19.157,-5.293 c -0.711,-0.21 -1.332,0.247 -1.457,1.102 l -1.808,12.977 c -0.117,0.863 0.261,1.461 0.992,1.562 l 3.555,0.496 c 0.73,0.106 1.109,0.703 0.992,1.567 l -1.567,11.152 c -0.117,0.855 -0.64,1.324 -1.375,1.227 l -27.714,-3.875 c -0.723,-0.098 -1.11,-0.7 -0.985,-1.555 l 1.555,-11.156 c 0.117,-0.86 0.652,-1.332 1.383,-1.235 l 3.554,0.504 c 0.731,0.098 1.258,-0.371 1.375,-1.234 l 6.207,-44.399 c 0.125,-0.855 -0.261,-1.457 -0.992,-1.554 l -3.554,-0.496 c -0.731,-0.11 -1.11,-0.708 -0.993,-1.567 l 1.563,-11.152 c 0.121,-0.856 0.652,-1.328 1.379,-1.227 l 27.715,3.875 c 0.73,0.098 1.109,0.699 0.992,1.555 l -1.563,11.156 c -0.121,0.856 -0.652,1.332 -1.379,1.227 l -3.558,-0.496 c -0.727,-0.098 -1.258,0.371 -1.375,1.226 l -1.457,10.406 c -0.117,0.856 0.183,1.336 0.898,1.547 l 19.153,5.297 c 0.714,0.211 1.332,-0.25 1.449,-1.101 l 1.832,-13.09 c 0.121,-0.856 -0.262,-1.457 -0.988,-1.559 l -3.559,-0.496 c -0.727,-0.105 -1.109,-0.703 -0.984,-1.562 l 1.554,-11.153 c 0.117,-0.855 0.653,-1.328 1.383,-1.226 l 27.711,3.875 c 0.73,0.097 1.109,0.699 0.988,1.554 l -1.558,11.157 c -0.121,0.859 -0.649,1.332 -1.379,1.226 l -3.559,-0.496 c -0.726,-0.098 -1.258,0.371 -1.375,1.227 l -6.207,44.398 c -0.117,0.863 0.262,1.465 0.992,1.563 l 3.551,0.496 c 0.734,0.105 1.109,0.703 0.992,1.562 z m -88.761,-51.578 0.304,-3.23 c 0.082,-0.864 -0.328,-1.446 -1.058,-1.512 l -15.301,-1.453 c -0.734,-0.067 -1.242,0.429 -1.328,1.293 l -3.809,40.316 c -0.082,0.863 0.328,1.445 1.063,1.52 l 3.57,0.336 c 0.73,0.066 1.141,0.652 1.059,1.511 l -1.059,11.215 c -0.082,0.863 -0.59,1.36 -1.32,1.285 l -27.86,-2.629 c -0.734,-0.066 -1.14,-0.648 -1.058,-1.511 l 1.058,-11.215 c 0.082,-0.863 0.59,-1.36 1.321,-1.293 l 3.578,0.344 c 0.73,0.066 1.242,-0.43 1.32,-1.289 l 4.219,-44.637 c 0.078,-0.863 -0.324,-1.445 -1.063,-1.512 l -3.57,-0.336 c -0.73,-0.066 -1.141,-0.652 -1.059,-1.512 l 1.059,-11.218 c 0.082,-0.86 0.59,-1.356 1.328,-1.289 l 51.863,4.906 c 0.731,0.066 1.141,0.648 1.059,1.512 l -2.039,21.562 c -0.078,0.863 -0.59,1.359 -1.32,1.285 l -9.903,-0.929 c -0.73,-0.075 -1.133,-0.657 -1.054,-1.52 z m -56.528,35.504 -0.679,11.238 c -0.055,0.867 -0.547,1.379 -1.286,1.332 l -27.925,-1.695 c -0.735,-0.051 -1.164,-0.613 -1.11,-1.484 l 0.684,-11.239 c 0.055,-0.863 0.547,-1.379 1.285,-1.336 l 3.582,0.227 c 0.73,0.043 1.227,-0.473 1.277,-1.336 l 2.727,-44.754 c 0.059,-0.859 -0.371,-1.43 -1.109,-1.473 l -3.582,-0.218 c -0.735,-0.043 -1.161,-0.614 -1.11,-1.481 l 0.688,-11.242 c 0.05,-0.859 0.543,-1.375 1.277,-1.324 l 27.93,1.695 c 0.738,0.043 1.16,0.617 1.113,1.484 l -0.691,11.239 c -0.047,0.863 -0.54,1.379 -1.278,1.328 l -3.582,-0.219 c -0.73,-0.043 -1.226,0.473 -1.277,1.336 l -2.731,44.746 c -0.054,0.867 0.375,1.438 1.106,1.481 l 3.582,0.218 c 0.738,0.043 1.168,0.614 1.109,1.477 z m -70.121,7.898 0.063,-11.265 c 0.004,-0.864 0.468,-1.403 1.203,-1.395 l 4.234,0.016 c 0.828,0.008 1.297,-0.637 1.024,-1.617 l -7.84,-31.012 c -0.36,-1.41 -1.094,-1.309 -1.469,-0.008 l -8.27,30.926 c -0.285,0.969 0.172,1.625 0.997,1.625 l 3.32,0.019 c 0.734,0.004 1.187,0.551 1.187,1.415 l -0.058,11.265 c -0.008,0.867 -0.473,1.402 -1.211,1.402 l -26.141,-0.144 c -0.738,-0.008 -1.191,-0.551 -1.191,-1.422 l 0.07,-11.258 c 0,-0.867 0.465,-1.406 1.203,-1.398 l 3.309,0.015 c 0.832,0.008 1.297,-0.644 1.023,-1.617 L 644.32,558.02 c -0.359,-1.415 -1.097,-1.415 -1.476,-0.016 l -8.082,30.93 c -0.282,0.972 0.172,1.629 1.004,1.629 l 2.297,0.011 c 0.738,0.008 1.199,0.551 1.191,1.418 l -0.063,11.262 c -0.003,0.867 -0.468,1.406 -1.203,1.402 l -28.07,-0.156 c -0.738,-0.008 -1.199,-0.551 -1.191,-1.414 l 0.058,-11.266 c 0.008,-0.863 0.473,-1.398 1.203,-1.398 l 3.778,0.023 c 0.644,0 1.101,-0.324 1.297,-1.183 l 16.617,-59.254 c 0.191,-0.863 0.648,-1.188 1.293,-1.188 l 18.593,0.106 c 0.649,0.008 1.106,0.328 1.286,1.195 l 6.039,22.453 c 0.367,1.301 1.097,1.309 1.476,0.004 l 6.379,-22.375 c 0.192,-0.867 0.652,-1.191 1.297,-1.183 l 18.594,0.097 c 0.644,0.008 1.101,0.336 1.285,1.199 l 15.965,59.434 c 0.179,0.867 0.629,1.195 1.273,1.195 l 4.789,0.028 c 0.739,0.004 1.196,0.55 1.192,1.418 l -0.063,11.261 c -0.008,0.868 -0.465,1.407 -1.203,1.399 l -27.98,-0.153 c -0.739,-0.007 -1.2,-0.546 -1.192,-1.414 z m -80.176,-49.261 -25.933,1.011 0.496,12.766 25.933,-1.004 z m -67.043,52.82 -0.804,-11.23 c -0.063,-0.868 0.355,-1.438 1.093,-1.493 l 5.047,-0.359 c 0.735,-0.059 1.153,-0.625 1.09,-1.496 l -1.73,-23.977 c -0.094,-1.293 -0.93,-1.449 -1.5,-0.328 l -18.125,40.395 c -0.321,0.675 -0.66,1.031 -1.309,1.074 l -25.43,1.836 c -0.73,0.047 -1.23,-0.453 -1.289,-1.324 l -0.812,-11.227 c -0.063,-0.867 0.359,-1.437 1.09,-1.496 l 4.961,-0.352 c 0.73,-0.054 1.152,-0.625 1.089,-1.496 l -3.222,-44.715 c -0.063,-0.859 -0.567,-1.371 -1.297,-1.312 l -4.961,0.352 c -0.73,0.054 -1.234,-0.454 -1.297,-1.313 l -0.805,-11.234 c -0.062,-0.864 0.356,-1.442 1.09,-1.489 l 27.91,-2.015 c 0.739,-0.051 1.235,0.453 1.293,1.32 l 0.813,11.227 c 0.062,0.871 -0.359,1.441 -1.09,1.496 l -4.961,0.351 c -0.73,0.059 -1.152,0.629 -1.09,1.496 l 1.805,25.055 c 0.094,1.297 0.934,1.449 1.5,0.328 l 18.691,-41.523 c 0.325,-0.668 0.664,-1.024 1.309,-1.067 l 17.441,-1.257 c 0.739,-0.055 1.235,0.453 1.297,1.316 l 4.242,58.758 c 0.063,0.859 0.555,1.371 1.29,1.312 l 4.957,-0.351 c 0.734,-0.055 1.234,0.453 1.296,1.312 l 0.805,11.238 c 0.063,0.86 -0.351,1.438 -1.09,1.489 l -28,2.019 c -0.73,0.055 -1.234,-0.453 -1.297,-1.32 z m -54.992,-17.219 2.516,21.508 c 0.097,0.863 -0.289,1.453 -1.024,1.539 l -59.148,6.926 c -0.731,0.078 -1.254,-0.402 -1.352,-1.262 l -1.308,-11.187 c -0.106,-0.856 0.293,-1.453 1.023,-1.539 l 3.567,-0.414 c 0.73,-0.09 1.121,-0.676 1.019,-1.54 l -5.207,-44.523 c -0.105,-0.863 -0.617,-1.344 -1.351,-1.258 l -3.567,0.414 c -0.73,0.086 -1.25,-0.394 -1.355,-1.258 l -1.309,-11.183 c -0.098,-0.863 0.297,-1.453 1.027,-1.539 l 59.153,-6.926 c 0.73,-0.086 1.246,0.398 1.351,1.258 l 2.516,21.515 c 0.102,0.856 -0.297,1.45 -1.027,1.54 l -9.871,1.152 c -0.735,0.086 -1.254,-0.399 -1.352,-1.262 l -0.379,-3.226 c -0.098,-0.86 -0.621,-1.34 -1.351,-1.262 l -22.676,2.656 c -0.731,0.086 -1.121,0.68 -1.024,1.535 l 0.809,6.891 c 0.098,0.855 0.516,1.246 1.258,1.266 l 20.183,0.582 c 0.742,0.023 1.168,0.519 1.27,1.375 l 1.808,15.488 c 0.106,0.863 -0.382,1.465 -1.125,1.445 l -19.8,-0.519 c -0.743,-0.02 -1.227,0.582 -1.125,1.441 l 0.929,7.957 c 0.098,0.859 0.618,1.344 1.352,1.258 l 22.672,-2.652 c 0.73,-0.086 1.125,-0.676 1.023,-1.54 l -0.379,-3.222 c -0.097,-0.863 0.297,-1.453 1.032,-1.539 l 9.871,-1.153 c 0.73,-0.086 1.25,0.399 1.351,1.258 z m -74.969,-5.789 -7.226,10.606 c -0.367,0.609 -0.801,0.797 -1.348,0.882 l -26.621,4.332 c -0.543,0.086 -0.98,0.266 -1.348,0.875 l -0.367,0.61 c -0.383,0.5 -0.461,1.172 -0.355,1.816 l 0.625,3.844 c 0.105,0.645 0.484,1.238 0.91,1.605 l 0.547,0.465 c 0.519,0.352 1.012,0.489 1.555,0.403 l 19.625,-3.192 c 0.543,-0.09 0.964,-0.379 1.351,-0.883 l 0.621,-0.753 c 0.383,-0.504 0.551,-1.192 0.446,-1.832 l -0.262,-1.606 c -0.137,-0.848 0.23,-1.461 0.957,-1.578 l 11.629,-1.895 c 0.726,-0.117 1.265,0.344 1.41,1.2 l 3.476,21.379 c 0.137,0.851 -0.23,1.46 -0.953,1.578 l -11.265,1.836 c -0.727,0.117 -1.274,-0.34 -1.41,-1.196 l -0.016,-0.113 c -0.125,-0.742 -0.777,-0.75 -1.453,0.242 l -0.684,0.985 c -0.363,0.609 -0.804,0.789 -1.344,0.875 l -29.074,4.73 c -0.543,0.094 -1.015,0.059 -1.558,-0.402 l -10.219,-7.77 c -0.524,-0.351 -0.809,-0.965 -0.914,-1.609 l -3.719,-22.875 c -0.105,-0.637 -0.031,-1.309 0.356,-1.809 l 7.226,-10.613 c 0.367,-0.609 0.809,-0.789 1.348,-0.875 l 26.621,-4.336 c 0.547,-0.086 0.98,-0.266 1.348,-0.871 l 0.371,-0.61 c 0.382,-0.503 0.457,-1.179 0.351,-1.816 l -0.797,-4.918 c -0.105,-0.637 -0.476,-1.238 -0.914,-1.605 l -0.543,-0.457 c -0.523,-0.356 -1.011,-0.496 -1.558,-0.411 l -20.528,3.34 c -0.547,0.094 -0.968,0.379 -1.351,0.883 l -0.621,0.754 c -0.383,0.504 -0.551,1.191 -0.453,1.832 l 0.261,1.606 c 0.145,0.855 -0.222,1.46 -0.957,1.578 l -11.625,1.89 c -0.722,0.121 -1.269,-0.34 -1.406,-1.195 l -3.477,-21.379 c -0.144,-0.855 0.231,-1.461 0.954,-1.578 l 11.265,-1.828 c 0.727,-0.125 1.266,0.34 1.406,1.195 l 0.02,0.106 c 0.117,0.75 0.777,0.75 1.453,-0.239 l 0.676,-0.992 c 0.371,-0.605 0.805,-0.785 1.351,-0.871 l 29.985,-4.883 c 0.539,-0.086 1.008,-0.054 1.554,0.406 l 10.219,7.774 c 0.52,0.355 0.805,0.969 0.91,1.605 l 3.895,23.942 c 0.105,0.644 0.031,1.312 -0.356,1.816 z m -69.105,11.723 -6.738,10.926 c -0.34,0.625 -0.77,0.824 -1.309,0.941 l -26.394,5.523 c -0.539,0.118 -0.973,0.317 -1.309,0.946 l -0.34,0.617 c -0.359,0.523 -0.41,1.199 -0.273,1.828 l 0.793,3.82 c 0.136,0.633 0.539,1.215 0.988,1.563 l 0.562,0.433 c 0.54,0.329 1.036,0.45 1.575,0.336 l 19.461,-4.078 c 0.539,-0.113 0.945,-0.418 1.308,-0.937 l 0.582,-0.789 c 0.367,-0.516 0.504,-1.207 0.367,-1.848 l -0.336,-1.586 c -0.171,-0.848 0.168,-1.469 0.887,-1.625 l 11.535,-2.41 c 0.719,-0.156 1.278,0.277 1.457,1.129 l 4.438,21.195 c 0.18,0.852 -0.16,1.477 -0.879,1.625 l -11.176,2.336 c -0.719,0.156 -1.281,-0.281 -1.457,-1.125 l -0.023,-0.105 c -0.157,-0.746 -0.805,-0.719 -1.438,0.297 l -0.633,1.015 c -0.339,0.625 -0.769,0.824 -1.308,0.945 l -28.828,6.036 c -0.543,0.113 -1.012,0.101 -1.578,-0.332 l -10.559,-7.305 c -0.539,-0.328 -0.848,-0.93 -0.984,-1.563 l -4.75,-22.679 c -0.137,-0.641 -0.086,-1.317 0.273,-1.828 l 6.738,-10.926 c 0.34,-0.625 0.77,-0.824 1.309,-0.942 l 26.394,-5.531 c 0.547,-0.113 0.973,-0.308 1.309,-0.937 l 0.34,-0.625 c 0.367,-0.516 0.41,-1.192 0.281,-1.825 l -1.023,-4.878 c -0.137,-0.633 -0.539,-1.215 -0.989,-1.563 l -0.562,-0.434 c -0.539,-0.328 -1.031,-0.445 -1.574,-0.335 l -20.356,4.265 c -0.547,0.113 -0.949,0.422 -1.308,0.938 l -0.59,0.789 c -0.363,0.519 -0.5,1.207 -0.363,1.847 l 0.332,1.586 c 0.175,0.848 -0.168,1.477 -0.887,1.625 l -11.531,2.418 c -0.719,0.149 -1.278,-0.285 -1.457,-1.136 l -4.442,-21.2 c -0.18,-0.847 0.164,-1.468 0.883,-1.621 l 11.172,-2.34 c 0.719,-0.148 1.285,0.286 1.457,1.137 l 0.023,0.106 c 0.157,0.738 0.809,0.711 1.442,-0.305 l 0.633,-1.016 c 0.339,-0.629 0.765,-0.828 1.304,-0.937 l 29.731,-6.231 c 0.547,-0.113 1.019,-0.101 1.578,0.332 l 10.558,7.305 c 0.539,0.328 0.856,0.926 0.985,1.563 l 4.972,23.742 c 0.137,0.636 0.086,1.308 -0.273,1.828 z m -62.188,39.601 2.684,10.938 c 0.207,0.844 -0.109,1.473 -0.824,1.648 l -27.176,6.672 c -0.711,0.18 -1.289,-0.234 -1.5,-1.082 l -2.684,-10.933 c -0.203,-0.844 0.114,-1.477 0.833,-1.657 l 3.484,-0.855 c 0.711,-0.176 1.027,-0.813 0.824,-1.649 L 237.18,594.902 c -0.203,-0.843 -0.782,-1.257 -1.492,-1.086 l -3.493,0.856 c -0.711,0.176 -1.289,-0.242 -1.492,-1.078 l -2.687,-10.938 c -0.203,-0.843 0.113,-1.48 0.828,-1.652 l 27.172,-6.676 c 0.714,-0.172 1.293,0.242 1.504,1.086 l 2.683,10.938 c 0.203,0.836 -0.113,1.476 -0.832,1.648 l -3.484,0.855 c -0.711,0.18 -1.028,0.817 -0.824,1.657 l 10.691,43.539 c 0.203,0.844 0.777,1.258 1.492,1.078 l 3.488,-0.856 c 0.715,-0.171 1.293,0.243 1.496,1.086 z m -39.265,9.364 3.187,10.797 c 0.243,0.832 -0.043,1.484 -0.75,1.695 l -22.867,6.738 c -0.613,0.188 -1.058,-0.023 -1.597,-0.539 L 184.5,637.23 c -0.691,-0.699 -1.398,-0.496 -1.59,0.465 l -7.961,36.446 c -0.172,0.73 -0.551,1.066 -1.172,1.246 l -24.539,7.242 c -0.707,0.211 -1.3,-0.18 -1.543,-1.012 l -3.187,-10.801 c -0.25,-0.832 0.043,-1.48 0.742,-1.691 l 4.863,-1.434 c 0.707,-0.203 0.992,-0.855 0.742,-1.683 l -12.679,-43 c -0.246,-0.832 -0.84,-1.223 -1.547,-1.012 l -4.856,1.434 c -0.707,0.203 -1.304,-0.18 -1.543,-1.012 l -3.187,-10.805 c -0.25,-0.832 0.043,-1.476 0.75,-1.687 l 26.926,-7.942 c 0.703,-0.211 1.297,0.18 1.543,1.008 l 3.187,10.801 c 0.242,0.832 -0.043,1.484 -0.75,1.695 l -4.765,1.399 c -0.707,0.211 -0.993,0.863 -0.75,1.695 l 7.289,24.719 c 0.371,1.246 1.257,1.32 1.57,0.097 l 8.828,-40.652 c 0.199,-0.961 0.906,-1.168 1.594,-0.465 l 29.598,29.426 c 0.925,0.856 1.625,0.309 1.257,-0.937 L 196,605.949 c -0.242,-0.828 -0.836,-1.219 -1.543,-1.015 l -3.449,1.015 c -0.699,0.211 -1.293,-0.179 -1.543,-1.008 l -3.188,-10.8 c -0.242,-0.832 0.043,-1.485 0.75,-1.688 l 26.926,-7.949 c 0.707,-0.203 1.305,0.187 1.547,1.019 l 3.188,10.797 c 0.246,0.832 -0.043,1.477 -0.75,1.688 l -3.532,1.043 c -0.707,0.211 -0.996,0.855 -0.75,1.687 l 12.688,43.004 c 0.242,0.828 0.836,1.215 1.543,1.012 l 3.535,-1.043 c 0.707,-0.211 1.297,0.18 1.543,1.012"
         style="fill:#00a763;fill-opacity:1;fill-rule:nonzero;stroke:none"
         id="Missen-Wilhams" />
		 <path
         d="m 536.32,649.672 c -34.238,11.781 -64.16,34.148 -83.527,72.883 -12.684,25.34 -2.469,56.105 22.922,68.781 l 27.082,13.801 c -19.367,14.797 -35.613,35.301 -42.274,64.816 -8.73,-9.301 -21.175,-15.531 -36.457,-15.531 h -28.41 c -4.066,0 -8.027,0.48 -11.824,1.379 V 696.41 c 0,-9.875 -2.805,-19.101 -7.66,-26.93 52.945,-9.453 106.437,-16.054 160.148,-19.808 z m 334.305,13.496 c -3.426,3.984 -6.227,8.453 -8.273,13.211 L 775.91,884.906 c -10.824,1.559 -20.558,6.508 -28.09,13.735 -4.078,-4.899 -9.355,-9.192 -15.988,-12.512 l -17.859,-9.098 c 32.8,-18.629 58.5,-50.461 58.5,-105.718 0,-73.614 -48.95,-110.528 -102.578,-125.094 67.21,1.207 134.335,6.855 200.73,16.949"
         style="fill:#00a763;fill-opacity:1;fill-rule:nonzero;stroke:none"
         id="espace inter TSV" />
		 <path
         d="m 264.426,906.672 v -1.055 c 0,-15.922 -12.942,-28.902 -28.899,-28.902 h -28.418 c -15.937,0 -28.91,12.965 -28.91,28.902 v 58.371 c 0,15.942 12.973,28.91 28.91,28.91 h 216.957 c 17.176,0 28.383,-14.246 28.383,-28.91 v -58.371 c 0,-14.656 -11.207,-28.902 -28.383,-28.902 h -28.41 c -15.941,0 -28.91,12.965 -28.91,28.902 v 1.055 h -5.207 V 696.414 c 0,-15.941 -12.965,-28.906 -28.906,-28.906 h -34.09 c -15.945,0 -28.91,12.965 -28.91,28.906 v 210.258 h -5.207"
         style="fill:#00a763;fill-opacity:1;fill-rule:nonzero;stroke:none"
         id="T" />
		 <path
         d="m 661.137,898.723 c -8.055,9.449 -27.485,20.347 -49.891,20.347 -36.617,0 -41.344,-14.257 -41.344,-20.168 0,-2.437 0.399,-5.23 8.477,-8.945 8.914,-4.086 22.449,-6.703 39.73,-8.773 58.399,-7.043 132.071,-23.903 132.071,-109.875 0,-80.922 -72.551,-110.516 -139.457,-110.516 -58.684,0 -110.778,17.297 -137.996,71.734 -7.172,14.336 -1.403,31.703 12.961,38.875 l 27.246,13.883 c 14.156,7.442 30.707,1.07 37.847,-11.23 10.336,-17.473 33.016,-27.559 60.985,-27.559 34.547,0 47.543,11.699 47.543,24.813 0,5.148 -1.973,9.25 -9.547,13.535 -8.563,4.836 -22.254,8.383 -40.571,10.359 -57.332,6.543 -129.644,23.836 -129.644,105.77 0,75.945 75.301,101.717 130.055,102.257 43.625,0 94.347,-11.703 123.265,-55.707 7.613,-12.691 5.535,-33.175 -11.023,-41.472 l -26.278,-13.387 c -11.668,-5.859 -25.972,-2.422 -34.429,6.059"
         style="fill:#00a763;fill-opacity:1;fill-rule:nonzero;stroke:none"
         id="S" />
		 <path
         d="m 971.902,907.563 c -12.511,3.179 -21.773,14.55 -21.773,28.015 v 28.41 c 0,15.922 12.945,28.907 28.906,28.907 h 99.695 c 15.96,0 28.9,-12.985 28.9,-28.907 v -28.41 c 0,-15.922 -12.94,-28.902 -28.9,-28.902 h -7.77 L 978.574,685.031 c -4.308,-10.011 -14.41,-17.527 -26.406,-17.527 h -42.867 c -11.985,0 -22.106,7.519 -26.414,17.547 L 791.02,906.676 h -7.762 c -15.942,0 -28.91,12.965 -28.91,28.902 v 28.41 c 0,15.942 12.968,28.907 28.91,28.907 h 99.699 c 17.18,0 28.391,-14.25 28.391,-28.907 v -28.41 c 0,-12.66 -8.368,-25.008 -21.707,-28.148 l 41.093,-105.364 41.168,105.497"
         style="fill:#00a763;fill-opacity:1;fill-rule:nonzero;stroke:none"
         id="V" />
		 <path
         d="m 196.777,963.988 v -58.367 c 0,-5.68 4.649,-10.332 10.336,-10.332 h 28.414 c 5.68,0 10.325,4.652 10.325,10.332 v 9.813 c 0,5.687 4.648,9.816 10.336,9.816 h 22.207 c 5.683,0 9.816,-4.129 9.816,-9.816 v -219.02 c 0,-5.68 4.648,-10.336 10.328,-10.336 h 34.094 c 5.68,0 10.332,4.656 10.332,10.336 v 219.02 c 0,5.687 4.129,9.816 9.812,9.816 h 22.211 c 5.684,0 10.336,-4.129 10.336,-9.816 v -9.813 c 0,-5.68 4.649,-10.332 10.332,-10.332 h 28.407 c 5.683,0 9.812,4.652 9.812,10.332 v 58.367 c 0,5.688 -4.129,10.336 -9.812,10.336 h -216.95 c -5.687,0 -10.336,-4.648 -10.336,-10.336"
         style="fill:#FFFFFF;fill-opacity:1;fill-rule:nonzero;stroke:none"
         id="T intern" />
		 <path
         d="m 687.18,909.238 c -4.129,-2.07 -9.297,-1.039 -12.399,2.067 -11.875,13.941 -36.16,26.343 -63.531,26.343 -40.297,0 -59.926,-17.05 -59.926,-38.746 0,-24.793 29.957,-32.023 64.574,-36.16 59.918,-7.226 115.707,-22.722 115.707,-91.429 0,-64.571 -56.824,-91.95 -120.878,-91.95 -55.274,0 -98.664,16.02 -121.387,61.473 -2.586,5.168 -0.52,11.367 4.644,13.945 l 27.379,13.949 c 4.653,2.583 10.852,0.516 13.43,-4.132 14.98,-25.313 45.461,-36.676 76.969,-36.676 34.093,0 66.121,11.887 66.121,43.391 0,26.859 -28.41,38.226 -66.633,42.359 -58.891,6.715 -113.129,22.726 -113.129,87.297 0,58.886 58.367,83.168 111.57,83.687 41.325,0 83.684,-10.847 107.45,-47.008 3.097,-5.164 1.543,-12.402 -3.614,-14.984 L 687.18,909.238"
         style="fill:#FFFFFF;fill-opacity:1;fill-rule:nonzero;stroke:none"
         id="S intern" />
		 <path
         d="m 1078.73,974.32 h -99.695 c -5.687,0 -10.332,-4.648 -10.332,-10.336 v -28.402 c 0,-5.684 4.645,-10.336 10.332,-10.336 h 12.395 c 3.617,0 6.203,-3.613 4.648,-6.715 L 935.641,763.559 c -2.067,-4.637 -7.746,-4.637 -9.813,0 l -60.441,154.972 c -1.032,3.102 1.554,6.715 5.168,6.715 h 12.402 c 5.684,0 9.813,4.652 9.813,10.336 v 28.402 c 0,5.688 -4.129,10.336 -9.813,10.336 h -99.699 c -5.688,0 -10.336,-4.648 -10.336,-10.336 v -28.402 c 0,-5.684 4.648,-10.336 10.336,-10.336 h 12.914 c 4.137,0 8.266,-2.062 9.816,-6.191 L 900,692.277 c 1.551,-3.609 5.172,-6.195 9.301,-6.195 h 42.867 c 4.141,0 7.75,2.586 9.301,6.195 L 1056,919.055 c 1.55,4.129 5.17,6.191 9.3,6.191 h 13.43 c 5.69,0 10.33,4.652 10.33,10.336 v 28.402 c 0,5.688 -4.64,10.336 -10.33,10.336"
         style="fill:#FFFFFF;fill-opacity:1;fill-rule:nonzero;stroke:none"
         id="V intern" />
		 <path
         d="m 930.734,918.586 c -2.703,-7.773 -7.25,-14.984 -13.418,-20.777 l 13.426,-34.411 13.516,34.629 c -6.039,5.598 -10.735,12.629 -13.524,20.559"
         style="fill:#00a763;fill-opacity:1;fill-rule:nonzero;stroke:none"
         id="losange V" />
		 <path
         d="m 239.102,1170.19 c 3.972,3.93 8.117,8.27 13.546,12.73 11.68,9.61 30.59,23.07 59.786,37.24 58.191,28.28 159.187,68.76 329.187,69.35 186.832,0.64 285.184,-47.72 404.119,-114.44 l 2.79,-1.56 0.65,-3.11 c 1.4,-6.63 2.96,-14.75 4.62,-24.11 5.03,-28.54 10.76,-68.42 14.78,-114.42 0.47,-5.49 0.93,-11.05 1.35,-16.69 h -90.895 c -22.347,0 -41.32,-14.33 -48.32,-34.246 -6.512,18.664 -23.578,34.246 -47.758,34.246 h -99.699 c -22.524,0 -41.676,-14.58 -48.52,-34.809 -35.617,35.869 -85.633,45.149 -125.242,45.149 -41.367,-0.41 -104.433,-15.33 -134.758,-61.848 0,25.406 -19.386,51.518 -50.672,51.518 H 214.633 c 3.117,45.99 8.672,85.01 14.16,113.94 2.984,15.73 5.918,28.35 8.395,37.28 l 1.914,3.78"
         style="fill:#00a763;fill-opacity:1;fill-rule:nonzero;stroke:none"
         id="fond haut" />
		 <path
         d="M 981.625,522 C 936.996,434.918 864.754,330.43 748.242,231.441 744.309,228.109 679.926,175.148 646.488,147.68 l -4.508,-3.711 -4.468,3.75 C 579.68,196.18 403.371,351.59 309.176,520.805 530.059,475.762 760.891,476.156 981.625,522"
         style="fill:#00a763;fill-opacity:1;fill-rule:nonzero;stroke:none"
         id="fond bas" />
		 <path
         d="m 240.309,700.383 c -13.082,52.703 -20.821,104.711 -24.789,154.039 h 20.003 c 4.071,0 8.024,0.496 11.821,1.433 v -157.41 l -7.035,1.938"
         style="fill:#00a763;fill-opacity:1;fill-rule:nonzero;stroke:none"
         id="fond gauche" />
		 <path
         d="m 1071.37,849.73 c -2.85,-41.824 -8.59,-83.21 -18.35,-121.562 -0.31,-1.215 -1.65,-10.738 -5.21,-26.91 -14.29,-4.008 -28.65,-7.797 -43.07,-11.367 l 66.63,159.839"
         style="fill:#00a763;fill-opacity:1;fill-rule:nonzero;stroke:none"
         id="fond droite" />
		 <path
         d="m 719.098,327.309 c -4.985,-0.457 -9.114,0.863 -9.114,4.601 -0.464,4.129 2.727,6.852 7.793,6.852 4.594,0 10.59,-1.321 10.59,-5.453 -0.547,-4.598 -4.129,-6 -9.269,-6 z m 22.957,12.39 c -3.653,10.973 -17.817,12.289 -24.742,12.289 -6.86,0 -15.571,-3.578 -18.762,-9.097 -3.66,-6.461 -2.805,-14.719 -0.465,-19.7 3.187,-5.519 9.644,-7.312 18.281,-7.312 10.598,0 12.856,2.262 12.856,2.262 0,0 0,-5.063 -4.516,-7.789 -3.738,-2.731 -9.738,-2.731 -13.863,-2.274 -3.582,0 -7.242,1.801 -11.364,4.133 0,0 -4.117,-8.25 1.403,-11.981 4.976,-3.582 7.707,-4.98 18.762,-4.98 9.187,0 21.011,7.781 22.41,17.352 1.867,10.117 2.73,17.828 0,27.097 z m -75.262,-21.57 h -9.809 c 2.336,5.601 5.606,10.742 9.809,16.34 0,0 0.465,-10.27 0,-16.34 z m 15.793,0.93 c 0,11.132 0,20.089 0.465,29.82 -3.735,1.402 -8.403,3.262 -15.403,2.801 -3.195,0 -5.996,-0.942 -6.925,-2.258 -2.801,-4.281 -21.875,-34.012 -21.875,-42.41 0,0 3.269,-0.942 14.011,-1.332 10.121,-0.539 13.469,-0.539 13.469,-0.539 l -0.473,-9.34 c 0,0 2.34,-0.391 7.864,-0.391 5.597,0 8.476,0.93 8.476,0.93 l -0.547,9.34 c 0,0 4.204,-0.539 5.997,0.851 2.335,1.41 4.285,6.071 5.214,12.528 -4.671,-0.387 -10.273,0 -10.273,0 z m -71.606,8.25 c -4.992,-0.457 -9.117,0.863 -9.117,4.601 -0.468,4.129 2.723,6.852 7.789,6.852 4.594,0 10.59,-1.321 10.59,-5.453 -0.547,-4.598 -4.129,-6 -9.262,-6 z m 22.954,12.39 c -3.653,10.973 -17.821,12.289 -24.746,12.289 -6.86,0 -15.571,-3.578 -18.762,-9.097 -3.66,-6.461 -2.797,-14.719 -0.465,-19.7 3.187,-5.519 9.648,-7.312 18.289,-7.312 10.59,0 12.848,2.262 12.848,2.262 0,0 0,-5.063 -4.512,-7.789 -3.742,-2.731 -9.734,-2.731 -13.867,-2.274 -3.574,0 -7.239,1.801 -11.364,4.133 0,0 -4.117,-8.25 1.403,-11.981 4.976,-3.582 7.707,-4.98 18.762,-4.98 9.187,0 21.015,7.781 22.414,17.352 1.871,10.117 2.726,17.828 0,27.097 z m -68.258,10.731 c -3.735,-1.95 -4.668,-3.809 -6.617,-6.692 -0.856,-1.41 -4.204,-7.937 -4.204,-7.937 0,0 2.883,-1.02 8.954,-1.403 l -1.403,-37.437 c 0,0 6.145,-2.332 10.895,-1.32 4.742,0.39 6.609,3.73 7.082,5.129 0,2.339 1.398,48.191 0.465,49.671 -0.465,0.93 -10.43,2.789 -15.172,-0.011"
         style="fill:#FFFFFF;fill-opacity:1;fill-rule:nonzero;stroke:none"
         id="1949" />
		 <path
         d="m 695.137,373.59 c 3.246,-0.25 8.633,0.91 10.461,4.582 2.078,4.039 -1.098,8.137 -1.098,8.137 -2.504,-1.84 -4.098,-2.93 -6.359,-2.508 -1.594,0.25 -2.512,2.758 -2.512,3.668 -0.676,3.429 -0.492,8.441 -0.492,12.051 0.492,0 2.754,-0.25 3.246,-0.25 0.918,0 2.695,0.679 3.613,1.41 2.934,2.261 2.692,9.109 2.692,9.109 -1.106,0 -4.473,-0.25 -8.633,-0.25 l 0.492,10.949 c -6.664,0 -8.93,-1.406 -10.758,-3.668 -1.773,-2.082 -1.773,-4.101 -1.773,-7.031 h -5.504 c 0,0 -1.348,-5.93 0.73,-8.68 0.184,-0.429 2.02,-1.16 4.098,-1.16 0.25,0 0.25,-0.187 0.426,-0.187 0,-2.934 -0.176,-7.953 -0.176,-8.864 0,-5.507 0.426,-10.207 2.199,-13.218 1.402,-2.258 4.094,-4.09 9.348,-4.09 z m -25.989,38.769 c 3.18,0 5.926,1.602 6.176,5.02 0,3.234 -2.328,5.008 -5.992,5.008 -3.18,0 -5.934,-1.586 -5.934,-4.766 0,-3 2.512,-5.262 5.75,-5.262 z m 5.684,-4.769 c -1.836,1.769 -4.582,3.609 -11.859,0.859 0,0 0.425,-3.179 0.425,-7.769 0,-7.95 -0.242,-21.711 -0.668,-25.559 0,0 3.665,-1.84 7.336,-1.41 3.848,0.488 4.766,3.91 5.008,8.258 0.25,2.082 0.676,24.461 -0.242,25.621 z m -35.531,-7.578 c 1.648,1.16 5.32,1.16 6.726,-0.25 1.594,-1.403 1.594,-4.16 1.594,-4.16 0,0 -0.43,-0.922 -5.566,-0.922 -3.86,0 -5.02,0.922 -5.02,0.922 0,0 0.43,2.757 2.266,4.41 z m 5.32,-12.231 c 6.484,0 13.645,2.008 13.645,2.008 0.914,4.652 0.664,14.383 -5.325,17.801 -6.914,4.16 -15.476,2.5 -18.656,0.488 -5.808,-3.668 -8.129,-8.066 -8.379,-16.398 -0.426,-11.551 5.571,-18.461 16.699,-18.461 10.336,0 15.235,6.66 16.325,10.64 0,0 -2.258,2.75 -5.25,2.75 -2.086,0.25 -3.981,-0.91 -5.141,-2.078 -2.754,-2.261 -8.078,-2.261 -10.344,-0.179 -0.918,0.859 -1.406,1.589 -1.406,4.347 0,0 1.406,-0.918 7.832,-0.918 z M 622.48,404.66 c 0,0 -2.382,4.699 -11.675,5.371 -6.918,0.489 -11.075,-1.402 -13.641,-3.48 -2.566,-2.141 -4.465,-10.332 -1.168,-14.379 4.16,-4.652 14.07,-5.383 15.414,-5.871 1.168,-0.43 1.899,-1.16 1.656,-2.321 -0.246,-1.16 -0.738,-1.41 -2.511,-1.652 -6.91,-0.918 -10.399,4.461 -13.637,3.301 -2.813,-1.16 -4.461,-4.219 -4.461,-4.219 0,0 4.949,-7.941 15.223,-7.941 10.582,0 15.718,3.359 15.718,11.91 0,8.691 -8.683,9.672 -11.07,10.351 -1.344,0.489 -3.668,0.489 -5.324,0.911 -1.469,0.488 -2.629,0.738 -2.387,2.39 0.246,2.078 3.551,2.328 5.27,1.84 1.285,-0.492 2.933,-1.41 5.078,-1.601 1.402,0 2.566,0.191 3.969,1.109 2.136,1.223 3.546,4.281 3.546,4.281"
         style="fill:#FFFFFF;fill-opacity:1;fill-rule:nonzero;stroke:none"
         id="seit" />
		 <path
         d="m 588.555,1227.13 h 4.437 c 12.617,-15.77 26.914,-30.03 38.668,-42.86 5.457,-8.61 39.559,-37.78 41.598,-39.84 0.66,-1.58 58.672,5.84 78.293,14.16 16.777,7.69 54.082,39.38 65.07,39.3 l 13.492,-12.51 c 0.141,-1.42 28.028,-35.46 40.563,-38.34 9.074,-5.12 27.344,-5.82 37.316,-8.34 16.379,-12.59 28.207,-25.38 43.508,-35.81 12.094,-7.94 24.527,-17.24 36.707,-24.48 -7.555,2.87 -67.715,42.45 -90.305,42.45 -48.882,0 -37.035,29.82 -71.101,29.82 -17.406,0 -29.156,5.42 -43.528,14.91 -10.035,-2.97 -23.039,-9.93 -30.3,-16.84 -14.832,-6.58 -64.078,-12.83 -65.922,-14.35 10.277,-2.87 34.515,-23.58 36.859,-25.94 0.988,-0.99 65.539,-38.37 86.535,-54.91 -29.492,10.7 -45.539,17.78 -74.273,28.61 -0.492,-2.3 -9.996,-6.39 -10.965,-8.98 -8.496,8.33 -18.391,18.37 -18.391,18.37 l -9.851,9.79 c -20.219,2.76 -24.844,15.25 -40.152,24.52 0,0 -27.364,-3.98 -30.856,-4.82 0.922,2.53 -0.117,5.79 -0.117,8.27 0,8.32 -7.902,22.48 -7.902,33.79 0,14.03 -20.223,30.08 -28.196,38.26 -15.23,-10.36 -29.086,-28.01 -39.133,-33.67 -7.832,-9.87 -23.308,-28.27 -32.511,-32.68 0,0 12.504,-8.17 25.234,-18.24 8.164,-7.84 17.77,-16.44 27.25,-21.04 -25.449,12.27 -84.687,46.63 -99.348,59.95 h -3.816 c -6.098,-8.65 -39.086,-27.86 -41.555,-27.86 -0.371,0 -30.613,-34.78 -50.363,-34.78 -2.469,0 -19.258,4.97 -21.727,4.97 -2.468,0 -45.246,-16.86 -68.574,-25.58 8.672,6.61 19.883,14.54 28.938,21.59 12.898,-1.23 64.125,23.82 71.679,27.18 2.004,0.64 29.946,14.3 35.422,19.8 7.082,4.39 24.821,14.92 32.102,20.32 2.973,0.29 8.465,3.87 12.824,8.19 h 4.379 c 5.457,-6.97 36.039,-26.86 36.039,-26.86 l 70.973,71.44 c 1.574,2.56 7.113,6.01 11,13.04"
         style="fill:#FFFFFF;fill-opacity:1;fill-rule:nonzero;stroke:none"
         id="Berge" />
		 <path
         d="m 1117.04,317.98 c -0.01,0 9.51,7.739 9.07,20.872 -0.83,16.82 -19.65,26.117 -48.55,22.136 -30.59,-4 -36.32,-12.117 -36.32,-12.117 0,0 4.97,-38.332 5.79,-55.019 0.45,-13.274 3.38,-41.161 3.38,-41.161 0,0 18.74,-8.371 43.9,-4.781 20.37,3.078 24.66,5.41 34.45,12.07 7.98,4.598 15.47,13.84 14.74,29.75 -0.85,17 -13.91,25.032 -26.46,28.25 z m -42.27,17.348 c 6.42,1.613 15.57,2.582 19.74,0.192 3.09,-2.489 4.8,-9.84 1.37,-13.02 -6.18,-5.352 -19.23,-5 -19.23,-5 -0.9,8.531 -1.88,17.828 -1.88,17.828 z m 31.4,-57.047 c -5.73,-8.121 -24.73,-6.359 -24.73,-6.359 -1.42,4.547 -3.68,15.598 -2.35,22.328 0,0 14.58,4.512 22.41,1.57 7.76,-2.172 8.93,-13.332 4.67,-17.539 z m 89.67,17.438 c 16.43,1.722 34.04,8.742 34.04,8.742 1.07,12.008 -2.15,36.598 -18.23,43.668 -18.63,8.699 -39.89,2.23 -47.41,-3.731 -13.74,-10.828 -18.45,-22.609 -16.86,-43.757 2,-29.411 19.02,-45.313 47.22,-42.352 26.2,2.762 36.83,20.941 38.54,31.301 0,0 -6.45,6.39 -14.04,5.59 -5.34,0.07 -9.84,-3.391 -12.47,-6.649 -6.38,-6.472 -19.87,-7.89 -26.16,-3.222 -2.55,1.929 -3.99,3.66 -4.72,10.64 0,0 3.81,-1.937 20.09,-0.23 z m -16.75,29.57 c 3.88,3.391 13.18,4.371 17.12,1.18 4.41,-3.149 5.14,-10.129 5.14,-10.129 0,0 -0.84,-2.442 -13.86,-3.809 -9.77,-1.031 -12.96,0.989 -12.96,0.989 0,0 0.35,7.101 4.56,11.769 z m 125.94,30.32 c -3.37,3.719 -10.37,7.84 -20.39,6.172 -14.67,-2.172 -18.02,-15.062 -18.02,-15.062 0,0 0.74,-1.02 -0.99,3.5 -1.68,4.051 -2.7,9.269 -14.62,8.019 -9.85,-1.66 -15.36,-5.84 -15.36,-5.84 0,0 4.18,-23.378 4.82,-39.929 1.43,-13.629 3.4,-44.297 3.4,-44.297 0,0 7.57,-3.434 15.71,-1.953 9.45,0.992 11.77,7.191 12.61,9.633 0.31,3.007 0.25,9.578 -0.43,22.046 -1.73,16.43 -1.11,10.543 -2.48,23.563 0,0 8.11,7.898 16.33,8.758 5.94,0.16 12.71,-1.641 15.46,-5.418 0,0 5.02,2.879 7.21,10.308 1.74,7.243 0.13,16.629 -3.25,20.5 z m 28.26,-81.019 c 0,0 -11.2,-6.668 -6.08,-19.61 3.26,-10.152 16.23,-17.402 35.36,-16.011 19.08,2 28.17,6.402 36.5,16.519 8.58,10.762 10.41,27.582 7.16,58.582 -3.45,28.309 -5.4,57.25 -5.4,57.25 0,0 -17.27,6.469 -26.76,-9.082 -3.11,2.793 -7.91,6.672 -16.55,6.864 -16.7,0.75 -25.93,-3.821 -34.24,-12.68 -14.25,-16.371 -7.5,-53.762 2.2,-64.172 9.16,-9.68 31.31,-17.699 54.27,-4.941 0,0 1.55,-10.188 -4.05,-15.168 -3.2,-3.789 -6.78,-5.571 -14.69,-6.403 -18.82,-1.359 -27.72,8.852 -27.72,8.852 z m 43.61,41.39 c -1.4,-3.121 -16.3,-12.05 -27.1,-4.73 -6.24,4.211 -7.64,23.5 -1.87,28.191 12.29,9.899 26.49,0.118 26.49,0.118 0.99,-3.508 2.79,-20.559 2.48,-23.579 z m 107.51,53.309 c 0,0 -7.29,11.289 -31.02,10.52 -17.66,-0.61 -27.68,-6.52 -33.63,-12.457 -5.94,-6.114 -8.56,-27.383 0.88,-36.731 11.77,-10.68 37.08,-9.902 40.62,-10.781 3.06,-0.781 5.12,-2.442 4.81,-5.449 -0.31,-3.012 -1.49,-3.77 -5.92,-4.86 -17.28,-4.16 -27.54,8.547 -35.44,4.739 -6.82,-3.692 -10.19,-11.879 -10.19,-11.879 0,0 14.67,-18.813 40.7,-16.082 26.81,2.82 38.93,12.711 36.65,34.39 -2.32,22.02 -24.57,22.192 -30.79,23.262 -3.54,0.879 -9.44,0.258 -13.74,0.91 -3.86,0.848 -6.87,1.16 -6.69,5.41 0.07,5.34 8.38,6.828 12.85,6.047 3.39,-0.898 7.83,-2.777 13.3,-2.68 3.56,0.383 6.45,1.153 9.77,3.852 5.09,3.672 7.84,11.789 7.84,11.789 z m 57.56,-73.551 c 8.29,0.25 21.63,4.633 25.29,14.41 4.18,10.793 -4.95,20.321 -4.95,20.321 -5.87,-5.309 -9.61,-8.528 -15.46,-8.047 -4.1,0.199 -7.09,6.308 -7.34,8.637 -2.62,8.5 -3.49,21.25 -4.45,30.402 1.24,0.129 7.05,0.109 8.29,0.238 2.33,0.25 6.64,2.422 8.78,4.531 6.83,6.508 4.39,23.79 4.39,23.79 -2.79,-0.29 -11.25,-1.809 -21.8,-2.918 l -1.68,27.867 c -16.88,-1.77 -22.24,-5.938 -26.28,-12.16 -3.94,-5.739 -3.4,-10.86 -2.62,-18.297 -7.44,-0.782 -13.95,-1.461 -13.95,-1.461 0,0 -1.83,-15.379 4.17,-21.801 0.58,-1.031 5.43,-2.398 10.7,-1.852 0.62,0.071 0.66,-0.398 1.13,-0.347 0.78,-7.442 1.65,-20.199 1.9,-22.52 1.46,-13.953 3.8,-25.769 9.09,-32.89 4.17,-5.36 11.47,-9.301 24.79,-7.903 z m 112.04,50.641 c -1.05,18.992 -1.07,37.019 -12.53,44.742 -15.45,11.391 -34.87,6.828 -49.83,1.488 -10.06,-4.179 -19.59,-11.757 -19.59,-11.757 0,0 1.4,-13.321 9.28,-15.313 9.87,-3.051 15.37,7.25 29.41,7.941 15.48,0.379 15.13,-15.66 15.13,-15.66 -22.2,2.371 -38.97,-2.058 -46.83,-10.711 -8.48,-8.718 -11.42,-34.429 6.49,-42.41 18.01,-7.5 35.75,-1.719 46.4,5.821 4,-2.239 6.49,-5.11 11.91,-4.54 10.38,1.09 15.76,6.52 15.76,6.52 0,-0.012 -5.09,11.199 -5.6,33.879 z m -24.96,-18.777 c 0,0 -9.15,-3.942 -16.9,-4.762 -8.38,-0.879 -15.43,5.129 -10.75,14.25 5.85,8.449 26.17,4.629 26.17,4.629 0.39,-3.719 0.88,-8.379 1.48,-14.117 z m -25.73,86.617 c 0.11,6.433 -5.03,10.59 -12,9.855 -6.34,-0.668 -11.19,-6.656 -10.53,-13.004 0.65,-6.191 6.56,-10.269 12.91,-9.601 6.97,0.73 10.27,6.562 9.62,12.75 z m 32.09,3.375 c -0.67,6.347 -5.8,10.504 -12,9.855 -6.19,-0.652 -11.21,-6.66 -10.54,-13.008 0.65,-6.191 5.95,-10.332 12.15,-9.679 6.96,0.726 10.27,6.558 10.39,12.832 z m 73.01,-104.356 c 8.29,0.242 21.63,4.621 25.29,14.41 4.19,10.782 -4.94,20.321 -4.94,20.321 -5.87,-5.321 -9.61,-8.528 -15.47,-8.047 -4.1,0.199 -7.09,6.308 -7.33,8.629 -2.62,8.5 -3.49,21.258 -4.45,30.398 1.24,0.129 7.04,0.121 8.28,0.25 2.33,0.242 6.65,2.422 8.78,4.52 6.84,6.511 4.4,23.793 4.4,23.793 -2.79,-0.293 -11.26,-1.813 -21.81,-2.922 l -1.67,27.879 c -16.89,-1.778 -22.24,-5.942 -26.29,-12.164 -3.94,-5.746 -3.4,-10.856 -2.62,-18.293 -7.44,-0.782 -13.95,-1.473 -13.95,-1.473 0,0 -1.83,-15.379 4.18,-21.789 0.57,-1.039 5.42,-2.41 10.69,-1.852 0.62,0.063 0.67,-0.398 1.13,-0.359 0.78,-7.437 1.66,-20.187 1.9,-22.519 1.47,-13.95 3.8,-25.77 9.09,-32.891 4.17,-5.359 11.47,-9.289 24.79,-7.891 z m 73.62,7.742 c 8.29,0.239 21.63,4.622 25.29,14.411 4.18,10.781 -4.95,20.32 -4.95,20.32 -5.87,-5.32 -9.61,-8.531 -15.46,-8.051 -4.1,0.192 -7.09,6.301 -7.34,8.629 -2.62,8.5 -3.49,21.262 -4.45,30.402 1.24,0.129 7.05,0.11 8.29,0.239 2.33,0.25 6.64,2.422 8.78,4.531 6.83,6.508 4.39,23.789 4.39,23.789 -2.79,-0.289 -11.25,-1.809 -21.8,-2.922 l -1.68,27.875 c -16.88,-1.773 -22.24,-5.941 -26.28,-12.164 -3.94,-5.738 -3.4,-10.859 -2.62,-18.289 -7.44,-0.789 -13.95,-1.469 -13.95,-1.469 0,0 -1.83,-15.383 4.17,-21.801 0.58,-1.031 5.43,-2.402 10.7,-1.851 0.62,0.07 0.66,-0.399 1.13,-0.348 0.78,-7.441 1.65,-20.203 1.9,-22.519 1.46,-13.953 3.8,-25.774 9.09,-32.891 4.17,-5.359 11.47,-9.293 24.79,-7.891 z m 29.85,45.598 c 26.15,4.633 32.08,3.371 41.43,5.293 10.23,1.078 13.27,0.457 20.12,6.809 7.09,5.601 6.63,18.859 6.63,18.859 0,0 -29.22,-2.129 -38.58,-4.051 -10.38,-1.09 -16.11,-1.699 -22.95,-8.207 -9.6,-8.519 -6.65,-18.703 -6.65,-18.703 z m 170.94,76.09 c 0,0 -9.95,6.629 -27.83,8.352 -20.02,2.593 -45.66,-3.86 -55.68,-14.309 -12.79,-12.465 -7.26,-38.199 1.97,-45.539 11.04,-8.25 33.35,-5.902 48.08,-11.883 2.74,-0.648 4.79,-2.32 4.25,-6.141 -0.55,-3.66 -2.99,-5.796 -6.71,-6.187 -12.81,-3.383 -20.93,2.348 -34.33,4.699 -13.4,2.352 -20.98,-13.48 -20.98,-13.48 3.84,-9.782 21.31,-23.918 52.85,-21.539 24.12,1.589 47.13,15.289 47.71,35.078 1.39,22.562 -12.53,31.281 -38.24,34.383 -22.64,2.168 -26.65,4.57 -26.94,7.359 -0.69,6.508 2.95,7.672 8.53,8.258 7.44,0.785 14.07,-1.184 20,-2.438 5.62,-1.289 12.13,-0.605 17.16,3.684 11.41,7.773 10.16,19.703 10.16,19.703 z m 107.48,-32.727 c -2.86,22.727 -16.86,30.809 -31.73,32.219 -21.57,2.434 -32.87,-9.402 -32.87,-9.402 0,0 -3.08,6.879 -12.99,5.836 -7.59,-0.797 -16.65,-5.508 -16.65,-5.508 0,0 3.58,-38.465 5.01,-52.106 1.71,-16.281 3.51,-61.691 3.51,-61.691 0,0 6.94,-3.5 16.24,-2.519 11.77,1.242 12.3,6.621 13.1,10.941 0.66,4.141 -1.05,26.367 -1.05,26.367 0,0 6.96,-5.066 22.22,-4.09 13.09,0.75 21.5,10.09 27.36,16.981 6.71,9.16 10.43,24.441 7.85,42.972 z m -28.41,-11.293 c 1.49,-14.117 -5.62,-19.57 -15.55,-20.609 -9.92,-1.039 -16.45,4.383 -16.45,4.383 -1.52,14.418 -2.07,25.656 -2.07,25.656 0,0 5.18,5.871 15.2,7.551 12.58,2.574 17.65,-5.348 18.87,-16.981 z m 78.02,53.786 c -26.05,-2.739 -45.42,-24.036 -42.66,-50.235 2.65,-25.269 26.4,-45.629 51.82,-42.961 25.58,2.692 43.49,24.461 40.82,49.883 -2.74,26.043 -24.72,45.969 -49.98,43.313 z m 21.39,-43.965 c 0.95,-11.981 -5.08,-18.731 -15.32,-19.797 -9.46,-1 -18.4,3.547 -20.34,16.047 -0.95,8.992 5.26,18.582 15.49,19.656 11.79,1.238 19.76,-4.508 20.17,-15.906 z m 101.21,47.781 c -3.36,3.719 -10.37,7.84 -20.39,6.16 -14.66,-2.168 -18.01,-15.055 -18.01,-15.055 0,0 0.73,-1.019 -1,3.5 -1.68,4.055 -2.69,9.274 -14.62,8.024 -9.85,-1.664 -15.36,-5.848 -15.36,-5.848 0,0 4.18,-23.379 4.82,-39.922 1.44,-13.64 3.41,-44.3 3.41,-44.3 0,0 7.56,-3.438 15.71,-1.95 9.44,0.993 11.77,7.192 12.61,9.629 0.31,3.012 0.24,9.582 -0.44,22.051 -1.73,16.422 -1.11,10.531 -2.48,23.555 0,0 8.11,7.902 16.33,8.765 5.94,0.157 12.71,-1.64 15.46,-5.425 0,0 5.02,2.879 7.21,10.316 1.74,7.234 0.13,16.625 -3.25,20.5 z m 56.54,-78.828 c 8.29,0.238 21.63,4.617 25.29,14.406 4.19,10.781 -4.95,20.32 -4.95,20.32 -5.87,-5.32 -9.61,-8.527 -15.46,-8.046 -4.1,0.199 -7.09,6.308 -7.34,8.628 -2.61,8.5 -3.49,21.258 -4.45,30.403 1.24,0.129 7.05,0.113 8.29,0.246 2.33,0.242 6.65,2.418 8.78,4.523 6.83,6.512 4.39,23.793 4.39,23.793 -2.79,-0.293 -11.25,-1.812 -21.8,-2.922 l -1.68,27.875 c -16.88,-1.773 -22.24,-5.941 -26.28,-12.164 -3.94,-5.742 -3.4,-10.855 -2.62,-18.296 -7.44,-0.782 -13.95,-1.465 -13.95,-1.465 0,0 -1.83,-15.379 4.17,-21.797 0.58,-1.035 5.43,-2.403 10.7,-1.852 0.62,0.067 0.67,-0.398 1.13,-0.347 0.78,-7.442 1.65,-20.2 1.9,-22.524 1.46,-13.953 3.8,-25.773 9.09,-32.894 4.17,-5.36 11.47,-9.289 24.79,-7.887"
         style="fill:#FFFFFF;fill-opacity:1;fill-rule:nonzero;stroke:none"
         id="Bergstätt" />
		 <path
         d="m 1162.73,453.926 c 6.11,-22.391 17.08,-31.414 31.5,-33.028 22.51,-2.335 34.96,10.407 34.96,10.407 0,0 2.92,-6.895 12.44,-6.524 8.36,0.879 17.9,5.485 17.9,5.485 0,0 -4.29,30.406 -6.33,43.832 -2.23,16.695 -5.71,70.683 -5.71,70.683 0,0 -6.91,3.192 -16.2,2.215 -12,-0.633 -11.92,-5.797 -13.12,-10.781 -0.96,-4.328 2.11,-26.098 2.11,-26.098 0,0 -5.02,6.051 -20.28,5.071 -13.7,-0.969 -25.23,-10.481 -31.07,-17.512 -6.1,-8.942 -10.98,-25.125 -6.2,-43.75 z m 28.7,11.484 c -1.9,13.594 7.24,22.082 17.32,23.141 9.31,0.976 14.87,-4.238 14.87,-4.238 3.21,-14.086 3.21,-30.547 3.21,-30.547 0,0 -5.59,-4.977 -15.6,-6.657 -11.05,-2.257 -17.88,5.961 -19.8,18.301 z m 119.67,3.496 c 16.43,1.731 34.04,8.746 34.04,8.746 1.07,12.008 -2.15,36.598 -18.23,43.672 -18.63,8.696 -39.89,2.227 -47.41,-3.73 -13.74,-10.836 -18.45,-22.61 -16.85,-43.762 1.99,-29.406 19.01,-45.312 47.21,-42.348 26.2,2.754 36.83,20.938 38.54,31.301 0,0 -6.45,6.383 -14.04,5.586 -5.34,0.067 -9.84,-3.387 -12.47,-6.648 -6.38,-6.473 -19.87,-7.891 -26.16,-3.219 -2.55,1.93 -3.99,3.66 -4.72,10.641 0,0 3.81,-1.95 20.09,-0.239 z m -16.75,29.578 c 3.88,3.387 13.18,4.364 17.12,1.172 4.41,-3.144 5.14,-10.129 5.14,-10.129 0,0 -0.84,-2.441 -13.86,-3.808 -9.77,-1.028 -12.96,0.992 -12.96,0.992 0,0 0.35,7.094 4.56,11.773 z m 125.94,30.321 c -3.37,3.718 -10.37,7.84 -20.39,6.16 -14.67,-2.168 -18.01,-15.055 -18.01,-15.055 0,0 0.73,-1.019 -1,3.5 -1.68,4.055 -2.7,9.274 -14.62,8.02 -9.85,-1.66 -15.36,-5.844 -15.36,-5.844 0,0 4.18,-23.379 4.82,-39.922 1.44,-13.637 3.4,-44.301 3.4,-44.301 0,0 7.57,-3.433 15.71,-1.953 9.45,0.992 11.77,7.192 12.61,9.629 0.31,3.012 0.25,9.586 -0.43,22.051 -1.73,16.43 -1.11,10.539 -2.48,23.558 0,0 8.11,7.903 16.33,8.766 5.94,0.156 12.71,-1.641 15.46,-5.426 0,0 5.02,2.879 7.21,10.317 1.74,7.234 0.13,16.625 -3.25,20.5 z m 100.61,40.172 c -30.17,-2.235 -50.69,-31.954 -48.36,-63.133 1.39,-31.117 27.34,-52.981 57.62,-51.832 31.18,1.554 57.2,32.636 52.09,63.363 -5.43,33.828 -25.7,55.348 -61.35,51.602 z m 7.3,-79.934 c -13.02,-1.367 -22.47,8.02 -22.97,20.238 -0.11,11.473 5.21,23.512 18.23,24.883 15.04,1.578 21.87,-8.242 23.17,-20.531 1.37,-13.07 -4.16,-23.09 -18.43,-24.59 z m 130.61,64.828 c -3.36,3.723 -10.37,7.844 -20.39,6.164 -14.66,-2.168 -18.01,-15.055 -18.01,-15.055 0,0 0.73,-1.019 -1,3.5 -1.68,4.055 -2.7,9.274 -14.62,8.02 -9.85,-1.66 -15.36,-5.844 -15.36,-5.844 0,0 4.18,-23.379 4.82,-39.922 1.44,-13.636 3.41,-44.3 3.41,-44.3 0,0 7.56,-3.438 15.7,-1.954 9.45,0.993 11.78,7.192 12.62,9.629 0.31,3.012 0.24,9.586 -0.44,22.051 -1.73,16.43 -1.11,10.539 -2.48,23.559 0,0 8.11,7.902 16.33,8.765 5.94,0.157 12.71,-1.64 15.46,-5.425 0,0 5.02,2.879 7.21,10.316 1.74,7.234 0.13,16.621 -3.25,20.496 z m 56.54,-78.828 c 8.29,0.242 21.63,4.621 25.29,14.41 4.18,10.781 -4.95,20.32 -4.95,20.32 -5.87,-5.316 -9.61,-8.531 -15.46,-8.05 -4.1,0.199 -7.09,6.308 -7.34,8.632 -2.61,8.5 -3.49,21.258 -4.45,30.403 1.24,0.129 7.05,0.113 8.29,0.242 2.33,0.246 6.64,2.422 8.78,4.523 6.83,6.512 4.39,23.793 4.39,23.793 -2.79,-0.293 -11.25,-1.808 -21.8,-2.918 l -1.68,27.875 c -16.88,-1.777 -22.24,-5.941 -26.28,-12.164 -3.94,-5.742 -3.4,-10.855 -2.62,-18.296 -7.44,-0.782 -13.95,-1.465 -13.95,-1.465 0,0 -1.83,-15.383 4.17,-21.797 0.58,-1.035 5.43,-2.406 10.7,-1.852 0.62,0.067 0.66,-0.398 1.13,-0.351 0.78,-7.438 1.65,-20.196 1.9,-22.52 1.46,-13.949 3.8,-25.769 9.09,-32.89 4.17,-5.364 11.47,-9.293 24.79,-7.895 z m 118.26,110.836 c 4.1,2.781 13.52,2.676 17.07,0.223 0,0 5,10.394 0.58,16.664 -4.12,5.047 -14.71,11.765 -34.72,3.867 -13.86,-5.215 -17.85,-19.414 -18.95,-37.25 0.1,-0.93 0.16,-1.551 0.28,-2.637 -6.98,-0.734 -12.09,-1.269 -12.09,-1.269 0,0 -2.69,-14.688 2.75,-20.223 1.4,-1.418 5.34,-1.629 10.2,-1.59 1.85,-23.625 5.4,-51.457 5.88,-55.949 0,0 7.58,-3.59 18.11,-2.485 6.97,0.735 9.4,4.434 10.12,6.547 1.66,2.055 -1.11,16.496 -2.32,32.508 -0.67,6.356 -1.55,14.723 -2.3,21.852 7.22,1.386 11.92,2.976 14.13,4.304 2.98,2.973 4.15,8.266 4.17,12.497 -0.05,5.003 -0.46,8.875 -0.46,8.875 -3.79,0.226 -10.92,-0.524 -19.14,-1.387 -0.05,0.465 -0.11,1.086 -0.16,1.551 0.51,5.546 1.61,10.054 6.85,13.902 z m 81.08,-28.93 c 1.75,-16.597 1.37,-13.031 2.12,-26.121 0,0 -4.59,-7.062 -14.67,-8.125 -9.93,-1.043 -9.85,2.727 -12.16,20.195 -1.92,18.293 -1.98,39.762 -1.98,39.762 0,0 -7.41,3.453 -16.29,2.992 -16.57,-1.742 -14.6,-14.547 -12.51,-44.89 1.42,-19.446 3.39,-32.235 11.79,-39.184 7.24,-6.285 16.44,-8.918 30.02,-6.863 15.75,2.281 18.9,12.64 18.9,12.64 0,0 -0.75,1.172 0.93,-2.878 1.52,-4.075 5,-8.879 17.24,-7.59 11.3,1.187 16.77,11.789 16.77,11.789 0,0 -7.26,6.445 -8.39,33.594 -0.81,13.703 -3.03,46.691 -3.03,46.691 0,0 -8.18,3.367 -16.34,2.043 -9.23,-1.598 -13.46,-7.527 -13.46,-7.527 0,0 0.4,-14.219 1.06,-26.528 z m -20.36,48.934 c 0.11,6.43 -5.03,10.59 -11.99,9.855 -6.35,-0.668 -11.2,-6.656 -10.54,-13.004 0.66,-6.195 6.56,-10.269 12.91,-9.605 6.97,0.734 10.27,6.559 9.62,12.754 z m 32.09,3.375 c -0.66,6.347 -5.8,10.504 -12,9.851 -6.19,-0.648 -11.21,-6.656 -10.54,-13.004 0.65,-6.195 5.95,-10.335 12.15,-9.683 6.97,0.73 10.27,6.558 10.39,12.836 z m 98.3,-16.926 c -3.36,3.723 -10.37,7.844 -20.38,6.164 -14.67,-2.168 -18.02,-15.058 -18.02,-15.058 0,0 0.73,-1.02 -0.99,3.5 -1.68,4.054 -2.7,9.277 -14.63,8.023 -9.85,-1.664 -15.36,-5.848 -15.36,-5.848 0,0 4.18,-23.379 4.83,-39.918 1.43,-13.64 3.4,-44.304 3.4,-44.304 0,0 7.56,-3.434 15.71,-1.953 9.45,0.996 11.77,7.195 12.61,9.632 0.31,3.008 0.25,9.582 -0.44,22.047 -1.73,16.43 -1.11,10.539 -2.47,23.559 0,0 8.1,7.902 16.32,8.765 5.94,0.157 12.72,-1.636 15.47,-5.425 0,0 5.01,2.879 7.2,10.316 1.74,7.234 0.13,16.625 -3.25,20.5"
         style="fill:#FFFFFF;fill-opacity:1;fill-rule:nonzero;stroke:none"
         id="der Ort für" />
</g></g></svg>
